# MagicaVoxel @ Ephtracy

# group
o 

# material
mtllib Punisher-3.mtl
usemtl palette

# normals
vn -1 0 0
vn 1 0 0
vn 0 0 1
vn 0 0 -1
vn 0 -1 0
vn 0 1 0

# texcoords
vt 0.927734 0.5
vt 0.955078 0.5
vt 0.958984 0.5
vt 0.974609 0.5
vt 0.986328 0.5

# verts
v -6.4 6.7 -7.4
v -6.4 6.7 -8
v -6.4 7.3 -7.4
v -6.4 7.3 -8
v -6.3 6.1 -7.4
v -6.3 6.1 -8
v -6.3 6.7 -7.4
v -6.3 6.7 -8
v -6.3 7.3 -7.4
v -6.3 7.3 -8
v -6.3 7.5 -7.4
v -6.3 7.5 -8
v -6.2 5.8 -7.4
v -6.2 5.8 -8
v -6.2 6.1 -7.4
v -6.2 6.1 -8
v -6.2 7.5 -7.4
v -6.2 7.5 -8
v -6.2 7.6 -7.4
v -6.2 7.6 -8
v -6.1 5.7 -7.4
v -6.1 5.7 -8
v -6.1 5.8 -7.4
v -6.1 5.8 -8
v -6.1 7.6 -7.5
v -6.1 7.6 -7.9
v -6.1 7.7 -7.5
v -6.1 7.7 -7.9
v -5.8 7.4 -7.9
v -5.8 7.4 -8
v -5.8 7.5 -7.9
v -5.8 7.5 -8
v -5.5 7.5 -7.9
v -5.5 7.5 -8
v -5.5 7.6 -7.9
v -5.5 7.6 -8
v -6 7.4 -7.9
v -6 7.4 -8
v -6 7.6 -7.9
v -6 7.6 -8
v -5.5 5.7 -7.4
v -5.5 5.7 -8
v -5.5 5.8 -7.4
v -5.5 5.8 -8
v -5.4 5.8 -7.4
v -5.4 5.8 -8
v -5.4 6.4 -7.4
v -5.4 6.4 -8
v -5.3 6.4 -7.4
v -5.3 6.4 -8
v -5.3 6.6 -7.4
v -5.3 6.6 -8
v -5.2 6.6 -7.4
v -5.2 6.6 -8
v -5.2 6.7 -7.4
v -5.2 6.7 -8
v -5.1 6.7 -7.4
v -5.1 6.7 -8
v -5.1 6.9 -7.4
v -5.1 6.9 -7.5
v -5.1 6.9 -7.9
v -5.1 6.9 -8
v -3.1 6.9 -7.4
v -3.1 6.9 -7.5
v -3.1 6.9 -7.9
v -3.1 6.9 -8
v -3.1 7 -7.4
v -3.1 7 -7.5
v -3.1 7 -7.9
v -3.1 7 -8
v -3.1 7.2 -7.4
v -3.1 7.2 -7.5
v -3.1 7.2 -7.9
v -3.1 7.2 -8
v -3.1 7.3 -7.4
v -3.1 7.3 -7.5
v -3.1 7.3 -7.9
v -3.1 7.3 -8
v -3.1 7.4 -7.4
v -3.1 7.4 -7.5
v -3.1 7.4 -7.9
v -3.1 7.4 -8
v -3.1 7.6 -7.4
v -3.1 7.6 -7.5
v -3.1 7.6 -7.6
v -3.1 7.6 -7.8
v -3.1 7.6 -7.9
v -3.1 7.6 -8
v -3.1 7.7 -7.5
v -3.1 7.7 -7.6
v -3.1 7.7 -7.8
v -3.1 7.7 -7.9
v -6.4 6.7 -7.4
v -6.4 7.3 -7.4
v -6.3 6.1 -7.4
v -6.3 6.7 -7.4
v -6.3 6.8 -7.4
v -6.3 7.2 -7.4
v -6.3 7.3 -7.4
v -6.3 7.5 -7.4
v -6.2 5.8 -7.4
v -6.2 6.1 -7.4
v -6.2 6.2 -7.4
v -6.2 6.8 -7.4
v -6.2 7.2 -7.4
v -6.2 7.4 -7.4
v -6.2 7.5 -7.4
v -6.2 7.6 -7.4
v -6.1 5.7 -7.4
v -6.1 5.8 -7.4
v -6.1 6.2 -7.4
v -6.1 7.2 -7.4
v -6.1 7.4 -7.4
v -6.1 7.5 -7.4
v -6 7.2 -7.4
v -6 7.3 -7.4
v -6 7.5 -7.4
v -6 7.6 -7.4
v -5.9 7.3 -7.4
v -5.9 7.4 -7.4
v -5.8 7.4 -7.4
v -5.8 7.5 -7.4
v -5.5 5.7 -7.4
v -5.5 5.8 -7.4
v -5.5 6.5 -7.4
v -5.5 7.5 -7.4
v -5.5 7.6 -7.4
v -5.4 5.8 -7.4
v -5.4 6.4 -7.4
v -5.4 6.5 -7.4
v -5.4 6.7 -7.4
v -5.3 6.4 -7.4
v -5.3 6.6 -7.4
v -5.3 6.7 -7.4
v -5.3 6.8 -7.4
v -5.2 6.6 -7.4
v -5.2 6.7 -7.4
v -5.2 6.8 -7.4
v -5.2 6.9 -7.4
v -5.1 6.7 -7.4
v -5.1 6.9 -7.4
v -5.1 7 -7.4
v -4.9 7 -7.4
v -4.9 7.3 -7.4
v -4.8 7 -7.4
v -4.8 7.2 -7.4
v -4.8 7.3 -7.4
v -4.8 7.4 -7.4
v -4.7 7 -7.4
v -4.7 7.2 -7.4
v -4.7 7.3 -7.4
v -4.7 7.4 -7.4
v -4.7 7.5 -7.4
v -4.6 7.2 -7.4
v -4.6 7.3 -7.4
v -4.6 7.4 -7.4
v -4.6 7.5 -7.4
v -4.6 7.6 -7.4
v -4.5 7 -7.4
v -4.5 7.1 -7.4
v -4.5 7.3 -7.4
v -4.5 7.4 -7.4
v -4.5 7.5 -7.4
v -4.4 7 -7.4
v -4.4 7.1 -7.4
v -4.4 7.2 -7.4
v -4.4 7.4 -7.4
v -4.4 7.5 -7.4
v -4.4 7.6 -7.4
v -4.3 7.1 -7.4
v -4.3 7.2 -7.4
v -4.3 7.3 -7.4
v -4.3 7.5 -7.4
v -4.3 7.6 -7.4
v -4.2 7 -7.4
v -4.2 7.1 -7.4
v -4.2 7.2 -7.4
v -4.2 7.3 -7.4
v -4.2 7.4 -7.4
v -4.1 7.1 -7.4
v -4.1 7.2 -7.4
v -3.1 6.9 -7.4
v -3.1 7 -7.4
v -3.1 7.2 -7.4
v -3.1 7.3 -7.4
v -3.1 7.4 -7.4
v -3.1 7.6 -7.4
v -6.1 7.6 -7.5
v -6.1 7.7 -7.5
v -6 7.6 -7.5
v -5.5 7.6 -7.5
v -4.6 7.6 -7.5
v -4.4 7.6 -7.5
v -4.3 7.6 -7.5
v -3.1 7.6 -7.5
v -3.1 7.7 -7.5
v -6.1 7.6 -7.9
v -6.1 7.7 -7.9
v -6 7.4 -7.9
v -6 7.6 -7.9
v -5.9 7.4 -7.9
v -5.8 7.4 -7.9
v -5.8 7.5 -7.9
v -5.5 7.5 -7.9
v -5.5 7.6 -7.9
v -4.6 7.6 -7.9
v -4.4 7.6 -7.9
v -4.3 7.6 -7.9
v -3.1 7.6 -7.9
v -3.1 7.7 -7.9
v -6.4 6.7 -8
v -6.4 7.3 -8
v -6.3 6.1 -8
v -6.3 6.7 -8
v -6.3 6.8 -8
v -6.3 7.2 -8
v -6.3 7.3 -8
v -6.3 7.5 -8
v -6.2 5.8 -8
v -6.2 6.1 -8
v -6.2 6.2 -8
v -6.2 6.8 -8
v -6.2 7.2 -8
v -6.2 7.4 -8
v -6.2 7.5 -8
v -6.2 7.6 -8
v -6.1 5.7 -8
v -6.1 5.8 -8
v -6.1 6.2 -8
v -6.1 7.2 -8
v -6 7.2 -8
v -6 7.3 -8
v -6 7.4 -8
v -6 7.6 -8
v -5.9 7.3 -8
v -5.9 7.4 -8
v -5.8 7.4 -8
v -5.8 7.5 -8
v -5.5 5.7 -8
v -5.5 5.8 -8
v -5.5 6.5 -8
v -5.5 7.5 -8
v -5.5 7.6 -8
v -5.4 5.8 -8
v -5.4 6.4 -8
v -5.4 6.5 -8
v -5.4 6.7 -8
v -5.3 6.4 -8
v -5.3 6.6 -8
v -5.3 6.7 -8
v -5.3 6.8 -8
v -5.2 6.6 -8
v -5.2 6.7 -8
v -5.2 6.8 -8
v -5.2 6.9 -8
v -5.1 6.7 -8
v -5.1 6.9 -8
v -5.1 7 -8
v -4.9 7 -8
v -4.9 7.3 -8
v -4.8 7 -8
v -4.8 7.2 -8
v -4.8 7.3 -8
v -4.8 7.4 -8
v -4.7 7 -8
v -4.7 7.2 -8
v -4.7 7.3 -8
v -4.7 7.4 -8
v -4.7 7.5 -8
v -4.6 7.2 -8
v -4.6 7.3 -8
v -4.6 7.4 -8
v -4.6 7.5 -8
v -4.6 7.6 -8
v -4.5 7 -8
v -4.5 7.1 -8
v -4.5 7.3 -8
v -4.5 7.4 -8
v -4.5 7.5 -8
v -4.4 7 -8
v -4.4 7.1 -8
v -4.4 7.2 -8
v -4.4 7.4 -8
v -4.4 7.5 -8
v -4.4 7.6 -8
v -4.3 7.1 -8
v -4.3 7.2 -8
v -4.3 7.3 -8
v -4.3 7.5 -8
v -4.3 7.6 -8
v -4.2 7 -8
v -4.2 7.1 -8
v -4.2 7.2 -8
v -4.2 7.3 -8
v -4.2 7.4 -8
v -4.1 7.1 -8
v -4.1 7.2 -8
v -3.1 6.9 -8
v -3.1 7 -8
v -3.1 7.2 -8
v -3.1 7.3 -8
v -3.1 7.4 -8
v -3.1 7.6 -8
v -6.1 5.7 -7.4
v -5.5 5.7 -7.4
v -6.1 5.7 -8
v -5.5 5.7 -8
v -6.2 5.8 -7.4
v -6.1 5.8 -7.4
v -5.5 5.8 -7.4
v -5.4 5.8 -7.4
v -6.2 5.8 -8
v -6.1 5.8 -8
v -5.5 5.8 -8
v -5.4 5.8 -8
v -6.3 6.1 -7.4
v -6.2 6.1 -7.4
v -6.3 6.1 -8
v -6.2 6.1 -8
v -5.4 6.4 -7.4
v -5.3 6.4 -7.4
v -5.4 6.4 -8
v -5.3 6.4 -8
v -5.3 6.6 -7.4
v -5.2 6.6 -7.4
v -5.3 6.6 -8
v -5.2 6.6 -8
v -6.4 6.7 -7.4
v -6.3 6.7 -7.4
v -5.2 6.7 -7.4
v -5.1 6.7 -7.4
v -6.4 6.7 -8
v -6.3 6.7 -8
v -5.2 6.7 -8
v -5.1 6.7 -8
v -5.1 6.9 -7.4
v -3.1 6.9 -7.4
v -5.1 6.9 -7.5
v -3.1 6.9 -7.5
v -5.1 6.9 -7.9
v -3.1 6.9 -7.9
v -5.1 6.9 -8
v -3.1 6.9 -8
v -6.4 7.3 -7.4
v -6.3 7.3 -7.4
v -6.4 7.3 -8
v -6.3 7.3 -8
v -6 7.4 -7.9
v -5.9 7.4 -7.9
v -5.8 7.4 -7.9
v -6 7.4 -8
v -5.9 7.4 -8
v -5.8 7.4 -8
v -6.3 7.5 -7.4
v -6.2 7.5 -7.4
v -5.8 7.5 -7.9
v -5.5 7.5 -7.9
v -6.3 7.5 -8
v -6.2 7.5 -8
v -5.8 7.5 -8
v -5.5 7.5 -8
v -6.2 7.6 -7.4
v -6 7.6 -7.4
v -5.5 7.6 -7.4
v -4.6 7.6 -7.4
v -4.4 7.6 -7.4
v -4.3 7.6 -7.4
v -3.1 7.6 -7.4
v -6.1 7.6 -7.5
v -6 7.6 -7.5
v -5.5 7.6 -7.5
v -4.6 7.6 -7.5
v -4.4 7.6 -7.5
v -4.3 7.6 -7.5
v -3.1 7.6 -7.5
v -6.1 7.6 -7.9
v -6 7.6 -7.9
v -5.5 7.6 -7.9
v -4.6 7.6 -7.9
v -4.4 7.6 -7.9
v -4.3 7.6 -7.9
v -3.1 7.6 -7.9
v -6.2 7.6 -8
v -6 7.6 -8
v -5.5 7.6 -8
v -4.6 7.6 -8
v -4.4 7.6 -8
v -4.3 7.6 -8
v -3.1 7.6 -8
v -6.1 7.7 -7.5
v -3.1 7.7 -7.5
v -6 7.7 -7.6
v -3.1 7.7 -7.6
v -6 7.7 -7.8
v -3.1 7.7 -7.8
v -6.1 7.7 -7.9
v -3.1 7.7 -7.9

# faces
f 3/3/1 2/3/1 1/3/1
f 4/3/1 2/3/1 3/3/1
f 7/3/1 6/3/1 5/3/1
f 8/3/1 6/3/1 7/3/1
f 11/3/1 10/3/1 9/3/1
f 12/3/1 10/3/1 11/3/1
f 15/3/1 14/3/1 13/3/1
f 16/3/1 14/3/1 15/3/1
f 19/3/1 18/3/1 17/3/1
f 20/3/1 18/3/1 19/3/1
f 23/3/1 22/3/1 21/3/1
f 24/3/1 22/3/1 23/3/1
f 27/3/1 26/3/1 25/3/1
f 28/3/1 26/3/1 27/3/1
f 31/4/1 30/4/1 29/4/1
f 32/4/1 30/4/1 31/4/1
f 35/4/1 34/4/1 33/4/1
f 36/4/1 34/4/1 35/4/1
f 37/3/2 38/3/2 39/3/2
f 39/3/2 38/3/2 40/3/2
f 41/3/2 42/3/2 43/3/2
f 43/3/2 42/3/2 44/3/2
f 45/3/2 46/3/2 47/3/2
f 47/3/2 46/3/2 48/3/2
f 49/3/2 50/3/2 51/3/2
f 51/3/2 50/3/2 52/3/2
f 53/3/2 54/3/2 55/3/2
f 55/3/2 54/3/2 56/3/2
f 57/3/2 58/3/2 59/3/2
f 59/3/2 58/3/2 60/3/2
f 60/3/2 58/3/2 61/3/2
f 61/3/2 58/3/2 62/3/2
f 63/3/2 64/3/2 67/3/2
f 64/4/2 65/4/2 68/4/2
f 67/3/2 64/3/2 68/3/2
f 65/3/2 66/3/2 69/3/2
f 68/4/2 65/4/2 69/4/2
f 69/3/2 66/3/2 70/3/2
f 67/4/2 68/4/2 71/4/2
f 68/4/2 69/4/2 71/4/2
f 69/4/2 70/4/2 71/4/2
f 71/4/2 70/4/2 72/4/2
f 72/4/2 70/4/2 73/4/2
f 73/4/2 70/4/2 74/4/2
f 71/5/2 72/5/2 75/5/2
f 72/4/2 73/4/2 76/4/2
f 75/5/2 72/5/2 76/5/2
f 73/5/2 74/5/2 77/5/2
f 76/4/2 73/4/2 77/4/2
f 77/5/2 74/5/2 78/5/2
f 75/2/2 76/2/2 79/2/2
f 76/4/2 77/4/2 80/4/2
f 79/2/2 76/2/2 80/2/2
f 77/2/2 78/2/2 81/2/2
f 80/4/2 77/4/2 81/4/2
f 81/2/2 78/2/2 82/2/2
f 79/1/2 80/1/2 83/1/2
f 80/4/2 81/4/2 84/4/2
f 83/1/2 80/1/2 84/1/2
f 84/4/2 81/4/2 85/4/2
f 85/4/2 81/4/2 86/4/2
f 81/1/2 82/1/2 87/1/2
f 86/4/2 81/4/2 87/4/2
f 87/1/2 82/1/2 88/1/2
f 84/3/2 85/3/2 89/3/2
f 85/4/2 86/4/2 90/4/2
f 89/3/2 85/3/2 90/3/2
f 86/3/2 87/3/2 91/3/2
f 90/4/2 86/4/2 91/4/2
f 91/3/2 87/3/2 92/3/2
f 96/3/3 94/3/3 93/3/3
f 97/3/3 94/3/3 96/3/3
f 98/3/3 94/3/3 97/3/3
f 99/3/3 94/3/3 98/3/3
f 102/3/3 96/3/3 95/3/3
f 102/3/3 97/3/3 96/3/3
f 103/3/3 97/3/3 102/3/3
f 104/2/3 98/2/3 97/2/3
f 104/3/3 97/3/3 103/3/3
f 105/3/3 100/3/3 99/3/3
f 105/2/3 98/2/3 104/2/3
f 105/3/3 99/3/3 98/3/3
f 106/3/3 100/3/3 105/3/3
f 107/3/3 100/3/3 106/3/3
f 110/3/3 102/3/3 101/3/3
f 110/3/3 103/3/3 102/3/3
f 111/2/3 104/2/3 103/2/3
f 111/2/3 105/2/3 104/2/3
f 111/3/3 103/3/3 110/3/3
f 111/2/3 106/2/3 105/2/3
f 112/2/3 106/2/3 111/2/3
f 113/3/3 108/3/3 107/3/3
f 113/2/3 106/2/3 112/2/3
f 113/3/3 107/3/3 106/3/3
f 114/3/3 108/3/3 113/3/3
f 115/4/3 112/4/3 111/4/3
f 115/4/3 111/4/3 110/4/3
f 115/2/3 114/2/3 113/2/3
f 115/2/3 113/2/3 112/2/3
f 116/2/3 114/2/3 115/2/3
f 117/3/3 108/3/3 114/3/3
f 117/2/3 114/2/3 116/2/3
f 118/3/3 108/3/3 117/3/3
f 119/4/3 116/4/3 115/4/3
f 119/2/3 117/2/3 116/2/3
f 119/2/3 118/2/3 117/2/3
f 120/2/3 118/2/3 119/2/3
f 121/4/3 120/4/3 119/4/3
f 121/2/3 118/2/3 120/2/3
f 122/2/3 118/2/3 121/2/3
f 123/3/3 110/3/3 109/3/3
f 124/4/3 115/4/3 110/4/3
f 124/3/3 110/3/3 123/3/3
f 124/4/3 119/4/3 115/4/3
f 124/4/3 122/4/3 121/4/3
f 124/4/3 121/4/3 119/4/3
f 125/4/3 122/4/3 124/4/3
f 126/2/3 118/2/3 122/2/3
f 126/4/3 122/4/3 125/4/3
f 127/2/3 118/2/3 126/2/3
f 128/3/3 125/3/3 124/3/3
f 129/3/3 125/3/3 128/3/3
f 130/4/3 127/4/3 126/4/3
f 130/3/3 125/3/3 129/3/3
f 130/4/3 126/4/3 125/4/3
f 131/4/3 127/4/3 130/4/3
f 132/3/3 130/3/3 129/3/3
f 132/3/3 131/3/3 130/3/3
f 133/3/3 131/3/3 132/3/3
f 134/4/3 127/4/3 131/4/3
f 134/3/3 131/3/3 133/3/3
f 135/4/3 127/4/3 134/4/3
f 136/3/3 134/3/3 133/3/3
f 136/3/3 135/3/3 134/3/3
f 137/3/3 135/3/3 136/3/3
f 138/4/3 127/4/3 135/4/3
f 138/3/3 135/3/3 137/3/3
f 139/4/3 127/4/3 138/4/3
f 140/3/3 138/3/3 137/3/3
f 140/3/3 139/3/3 138/3/3
f 141/4/3 127/4/3 139/4/3
f 141/3/3 139/3/3 140/3/3
f 142/4/3 127/4/3 141/4/3
f 143/4/3 127/4/3 142/4/3
f 143/3/3 142/3/3 141/3/3
f 144/4/3 127/4/3 143/4/3
f 145/3/3 143/3/3 141/3/3
f 145/5/3 144/5/3 143/5/3
f 146/5/3 144/5/3 145/5/3
f 147/4/3 127/4/3 144/4/3
f 147/5/3 144/5/3 146/5/3
f 148/4/3 127/4/3 147/4/3
f 149/2/3 146/2/3 145/2/3
f 149/3/3 145/3/3 141/3/3
f 150/5/3 148/5/3 147/5/3
f 150/2/3 146/2/3 149/2/3
f 150/5/3 147/5/3 146/5/3
f 151/5/3 148/5/3 150/5/3
f 152/4/3 127/4/3 148/4/3
f 152/5/3 148/5/3 151/5/3
f 153/4/3 127/4/3 152/4/3
f 154/2/3 151/2/3 150/2/3
f 154/1/3 150/1/3 149/1/3
f 155/5/3 153/5/3 152/5/3
f 155/2/3 151/2/3 154/2/3
f 155/5/3 152/5/3 151/5/3
f 156/5/3 153/5/3 155/5/3
f 157/4/3 127/4/3 153/4/3
f 157/5/3 153/5/3 156/5/3
f 158/4/3 127/4/3 157/4/3
f 159/3/3 149/3/3 141/3/3
f 159/1/3 154/1/3 149/1/3
f 159/1/3 155/1/3 154/1/3
f 160/1/3 155/1/3 159/1/3
f 161/2/3 156/2/3 155/2/3
f 161/1/3 155/1/3 160/1/3
f 162/5/3 158/5/3 157/5/3
f 162/2/3 156/2/3 161/2/3
f 162/5/3 157/5/3 156/5/3
f 163/5/3 158/5/3 162/5/3
f 164/2/3 160/2/3 159/2/3
f 164/3/3 159/3/3 141/3/3
f 165/1/3 161/1/3 160/1/3
f 165/2/3 160/2/3 164/2/3
f 165/1/3 162/1/3 161/1/3
f 166/1/3 162/1/3 165/1/3
f 167/2/3 163/2/3 162/2/3
f 167/1/3 162/1/3 166/1/3
f 168/5/3 158/5/3 163/5/3
f 168/2/3 163/2/3 167/2/3
f 169/5/3 158/5/3 168/5/3
f 170/2/3 166/2/3 165/2/3
f 170/5/3 165/5/3 164/5/3
f 171/1/3 167/1/3 166/1/3
f 171/2/3 166/2/3 170/2/3
f 171/1/3 168/1/3 167/1/3
f 172/1/3 168/1/3 171/1/3
f 173/2/3 169/2/3 168/2/3
f 173/1/3 168/1/3 172/1/3
f 174/2/3 169/2/3 173/2/3
f 175/5/3 170/5/3 164/5/3
f 175/3/3 164/3/3 141/3/3
f 175/5/3 171/5/3 170/5/3
f 176/5/3 171/5/3 175/5/3
f 177/2/3 172/2/3 171/2/3
f 177/5/3 171/5/3 176/5/3
f 178/1/3 174/1/3 173/1/3
f 178/2/3 172/2/3 177/2/3
f 178/1/3 173/1/3 172/1/3
f 179/1/3 174/1/3 178/1/3
f 180/5/3 177/5/3 176/5/3
f 180/4/3 176/4/3 175/4/3
f 180/5/3 178/5/3 177/5/3
f 181/5/3 178/5/3 180/5/3
f 182/3/3 175/3/3 141/3/3
f 183/4/3 180/4/3 175/4/3
f 183/3/3 175/3/3 182/3/3
f 183/4/3 181/4/3 180/4/3
f 184/5/3 178/5/3 181/5/3
f 184/4/3 181/4/3 183/4/3
f 185/2/3 179/2/3 178/2/3
f 185/5/3 178/5/3 184/5/3
f 186/1/3 174/1/3 179/1/3
f 186/2/3 179/2/3 185/2/3
f 187/1/3 174/1/3 186/1/3
f 190/3/3 189/3/3 188/3/3
f 191/3/3 189/3/3 190/3/3
f 192/3/3 189/3/3 191/3/3
f 193/3/3 189/3/3 192/3/3
f 194/3/3 189/3/3 193/3/3
f 195/3/3 189/3/3 194/3/3
f 196/3/3 189/3/3 195/3/3
f 197/3/4 198/3/4 200/3/4
f 199/2/4 200/2/4 201/2/4
f 201/2/4 200/2/4 202/2/4
f 202/2/4 200/2/4 203/2/4
f 203/2/4 200/2/4 204/2/4
f 200/3/4 198/3/4 205/3/4
f 204/2/4 200/2/4 205/2/4
f 205/3/4 198/3/4 206/3/4
f 206/3/4 198/3/4 207/3/4
f 207/3/4 198/3/4 208/3/4
f 208/3/4 198/3/4 209/3/4
f 209/3/4 198/3/4 210/3/4
f 211/3/4 212/3/4 214/3/4
f 214/3/4 212/3/4 215/3/4
f 215/3/4 212/3/4 216/3/4
f 216/3/4 212/3/4 217/3/4
f 213/3/4 214/3/4 220/3/4
f 214/3/4 215/3/4 220/3/4
f 220/3/4 215/3/4 221/3/4
f 215/2/4 216/2/4 222/2/4
f 221/3/4 215/3/4 222/3/4
f 217/3/4 218/3/4 223/3/4
f 222/2/4 216/2/4 223/2/4
f 216/3/4 217/3/4 223/3/4
f 223/3/4 218/3/4 224/3/4
f 224/3/4 218/3/4 225/3/4
f 219/3/4 220/3/4 228/3/4
f 220/3/4 221/3/4 228/3/4
f 221/2/4 222/2/4 229/2/4
f 222/2/4 223/2/4 229/2/4
f 228/3/4 221/3/4 229/3/4
f 223/2/4 224/2/4 229/2/4
f 229/2/4 224/2/4 230/2/4
f 228/4/4 229/4/4 231/4/4
f 230/2/4 224/2/4 231/2/4
f 229/4/4 230/4/4 231/4/4
f 231/2/4 224/2/4 232/2/4
f 225/3/4 226/3/4 233/3/4
f 232/2/4 224/2/4 233/2/4
f 224/3/4 225/3/4 233/3/4
f 233/3/4 226/3/4 234/3/4
f 231/4/4 232/4/4 235/4/4
f 232/2/4 233/2/4 235/2/4
f 235/2/4 233/2/4 236/2/4
f 235/4/4 236/4/4 237/4/4
f 227/3/4 228/3/4 239/3/4
f 237/4/4 238/4/4 240/4/4
f 239/3/4 228/3/4 240/3/4
f 228/4/4 231/4/4 240/4/4
f 235/4/4 237/4/4 240/4/4
f 231/4/4 235/4/4 240/4/4
f 240/4/4 238/4/4 241/4/4
f 241/4/4 238/4/4 242/4/4
f 240/3/4 241/3/4 244/3/4
f 244/3/4 241/3/4 245/3/4
f 242/4/4 243/4/4 246/4/4
f 245/3/4 241/3/4 246/3/4
f 241/4/4 242/4/4 246/4/4
f 246/4/4 243/4/4 247/4/4
f 245/3/4 246/3/4 248/3/4
f 246/3/4 247/3/4 248/3/4
f 248/3/4 247/3/4 249/3/4
f 247/4/4 243/4/4 250/4/4
f 249/3/4 247/3/4 250/3/4
f 250/4/4 243/4/4 251/4/4
f 249/3/4 250/3/4 252/3/4
f 250/3/4 251/3/4 252/3/4
f 252/3/4 251/3/4 253/3/4
f 251/4/4 243/4/4 254/4/4
f 253/3/4 251/3/4 254/3/4
f 254/4/4 243/4/4 255/4/4
f 253/3/4 254/3/4 256/3/4
f 254/3/4 255/3/4 256/3/4
f 255/4/4 243/4/4 257/4/4
f 256/3/4 255/3/4 257/3/4
f 257/4/4 243/4/4 258/4/4
f 258/4/4 243/4/4 259/4/4
f 257/3/4 258/3/4 259/3/4
f 259/4/4 243/4/4 260/4/4
f 257/3/4 259/3/4 261/3/4
f 259/5/4 260/5/4 261/5/4
f 261/5/4 260/5/4 262/5/4
f 260/4/4 243/4/4 263/4/4
f 262/5/4 260/5/4 263/5/4
f 263/4/4 243/4/4 264/4/4
f 261/2/4 262/2/4 265/2/4
f 257/3/4 261/3/4 265/3/4
f 263/5/4 264/5/4 266/5/4
f 265/2/4 262/2/4 266/2/4
f 262/5/4 263/5/4 266/5/4
f 266/5/4 264/5/4 267/5/4
f 264/4/4 243/4/4 268/4/4
f 267/5/4 264/5/4 268/5/4
f 268/4/4 243/4/4 269/4/4
f 266/2/4 267/2/4 270/2/4
f 265/1/4 266/1/4 270/1/4
f 268/5/4 269/5/4 271/5/4
f 270/2/4 267/2/4 271/2/4
f 267/5/4 268/5/4 271/5/4
f 271/5/4 269/5/4 272/5/4
f 269/4/4 243/4/4 273/4/4
f 272/5/4 269/5/4 273/5/4
f 273/4/4 243/4/4 274/4/4
f 257/3/4 265/3/4 275/3/4
f 265/1/4 270/1/4 275/1/4
f 270/1/4 271/1/4 275/1/4
f 275/1/4 271/1/4 276/1/4
f 271/2/4 272/2/4 277/2/4
f 276/1/4 271/1/4 277/1/4
f 273/5/4 274/5/4 278/5/4
f 277/2/4 272/2/4 278/2/4
f 272/5/4 273/5/4 278/5/4
f 278/5/4 274/5/4 279/5/4
f 275/2/4 276/2/4 280/2/4
f 257/3/4 275/3/4 280/3/4
f 276/1/4 277/1/4 281/1/4
f 280/2/4 276/2/4 281/2/4
f 277/1/4 278/1/4 281/1/4
f 281/1/4 278/1/4 282/1/4
f 278/2/4 279/2/4 283/2/4
f 282/1/4 278/1/4 283/1/4
f 279/5/4 274/5/4 284/5/4
f 283/2/4 279/2/4 284/2/4
f 284/5/4 274/5/4 285/5/4
f 281/2/4 282/2/4 286/2/4
f 280/5/4 281/5/4 286/5/4
f 282/1/4 283/1/4 287/1/4
f 286/2/4 282/2/4 287/2/4
f 283/1/4 284/1/4 287/1/4
f 287/1/4 284/1/4 288/1/4
f 284/2/4 285/2/4 289/2/4
f 288/1/4 284/1/4 289/1/4
f 289/2/4 285/2/4 290/2/4
f 280/5/4 286/5/4 291/5/4
f 257/3/4 280/3/4 291/3/4
f 286/5/4 287/5/4 291/5/4
f 291/5/4 287/5/4 292/5/4
f 287/2/4 288/2/4 293/2/4
f 292/5/4 287/5/4 293/5/4
f 289/1/4 290/1/4 294/1/4
f 293/2/4 288/2/4 294/2/4
f 288/1/4 289/1/4 294/1/4
f 294/1/4 290/1/4 295/1/4
f 292/5/4 293/5/4 296/5/4
f 291/4/4 292/4/4 296/4/4
f 293/5/4 294/5/4 296/5/4
f 296/5/4 294/5/4 297/5/4
f 257/3/4 291/3/4 298/3/4
f 291/4/4 296/4/4 299/4/4
f 298/3/4 291/3/4 299/3/4
f 296/4/4 297/4/4 299/4/4
f 297/5/4 294/5/4 300/5/4
f 299/4/4 297/4/4 300/4/4
f 294/2/4 295/2/4 301/2/4
f 300/5/4 294/5/4 301/5/4
f 295/1/4 290/1/4 302/1/4
f 301/2/4 295/2/4 302/2/4
f 302/1/4 290/1/4 303/1/4
f 306/3/5 305/3/5 304/3/5
f 307/3/5 305/3/5 306/3/5
f 312/3/5 309/3/5 308/3/5
f 313/3/5 309/3/5 312/3/5
f 314/3/5 311/3/5 310/3/5
f 315/3/5 311/3/5 314/3/5
f 318/3/5 317/3/5 316/3/5
f 319/3/5 317/3/5 318/3/5
f 322/3/5 321/3/5 320/3/5
f 323/3/5 321/3/5 322/3/5
f 326/3/5 325/3/5 324/3/5
f 327/3/5 325/3/5 326/3/5
f 332/3/5 329/3/5 328/3/5
f 333/3/5 329/3/5 332/3/5
f 334/3/5 331/3/5 330/3/5
f 335/3/5 331/3/5 334/3/5
f 338/3/5 337/3/5 336/3/5
f 339/3/5 337/3/5 338/3/5
f 340/4/5 339/4/5 338/4/5
f 341/4/5 339/4/5 340/4/5
f 342/3/5 341/3/5 340/3/5
f 343/3/5 341/3/5 342/3/5
f 344/3/6 345/3/6 346/3/6
f 346/3/6 345/3/6 347/3/6
f 348/2/6 349/2/6 351/2/6
f 349/4/6 350/4/6 352/4/6
f 351/2/6 349/2/6 352/2/6
f 352/4/6 350/4/6 353/4/6
f 354/3/6 355/3/6 358/3/6
f 358/3/6 355/3/6 359/3/6
f 356/4/6 357/4/6 360/4/6
f 360/4/6 357/4/6 361/4/6
f 362/3/6 363/3/6 369/3/6
f 363/2/6 364/2/6 370/2/6
f 369/3/6 363/3/6 370/3/6
f 364/4/6 365/4/6 371/4/6
f 370/2/6 364/2/6 371/2/6
f 365/5/6 366/5/6 372/5/6
f 371/4/6 365/4/6 372/4/6
f 366/2/6 367/2/6 373/2/6
f 372/5/6 366/5/6 373/5/6
f 367/1/6 368/1/6 374/1/6
f 373/2/6 367/2/6 374/2/6
f 374/1/6 368/1/6 375/1/6
f 362/3/6 369/3/6 376/3/6
f 362/3/6 376/3/6 383/3/6
f 376/3/6 377/3/6 383/3/6
f 383/3/6 377/3/6 384/3/6
f 378/4/6 379/4/6 385/4/6
f 379/5/6 380/5/6 386/5/6
f 385/4/6 379/4/6 386/4/6
f 380/2/6 381/2/6 387/2/6
f 386/5/6 380/5/6 387/5/6
f 381/1/6 382/1/6 388/1/6
f 387/2/6 381/2/6 388/2/6
f 388/1/6 382/1/6 389/1/6
f 390/3/6 391/3/6 392/3/6
f 392/3/6 391/3/6 393/3/6
f 390/3/6 392/3/6 394/3/6
f 392/4/6 393/4/6 394/4/6
f 394/4/6 393/4/6 395/4/6
f 390/3/6 394/3/6 396/3/6
f 394/3/6 395/3/6 396/3/6
f 396/3/6 395/3/6 397/3/6
