# MagicaVoxel @ Ephtracy

# group
o 

# material
mtllib Punisher-2.mtl
usemtl palette

# normals
vn -1 0 0
vn 1 0 0
vn 0 0 1
vn 0 0 -1
vn 0 -1 0
vn 0 1 0

# texcoords
vt 0.955078 0.5
vt 0.958984 0.5
vt 0.962891 0.5
vt 0.974609 0.5
vt 0.982422 0.5
vt 0.990234 0.5

# verts
v -0.5 4.5 -7.5
v -0.5 4.5 -8
v -0.5 4.6 -7.5
v -0.5 4.6 -8
v -0.5 4.9 -7.5
v -0.5 4.9 -8
v -0.5 6.1 -7.5
v -0.5 6.1 -8
v -0.5 6.3 -7.5
v -0.5 6.3 -8
v -0.5 6.5 -7.5
v -0.5 6.5 -8
v -0.4 4.1 -7.5
v -0.4 4.1 -8
v -0.4 4.3 -7.5
v -0.4 4.3 -8
v -0.4 4.5 -7.5
v -0.4 4.5 -8
v 0.3 4.1 -7.5
v 0.3 4.1 -8
v 0.3 4.2 -7.5
v 0.3 4.2 -8
v 0.4 4.2 -7.5
v 0.4 4.2 -8
v 0.4 4.5 -7.5
v 0.4 4.5 -7.6
v 0.4 4.5 -7.9
v 0.4 4.5 -8
v 0.4 4.6 -7.6
v 0.4 4.6 -7.9
v 0.4 4.9 -7.6
v 0.4 4.9 -7.9
v 0.4 6.5 -7.5
v 0.4 6.5 -7.6
v 0.4 6.5 -7.9
v 0.4 6.5 -8
v -0.5 4.5 -7.5
v -0.5 4.6 -7.5
v -0.5 4.9 -7.5
v -0.5 6.1 -7.5
v -0.5 6.3 -7.5
v -0.5 6.5 -7.5
v -0.4 4.1 -7.5
v -0.4 4.3 -7.5
v -0.4 4.5 -7.5
v -0.4 6.3 -7.5
v -0.4 6.4 -7.5
v -0.3 4.1 -7.5
v -0.3 4.3 -7.5
v -0.3 4.9 -7.5
v -0.3 5 -7.5
v -0.2 6.1 -7.5
v -0.2 6.2 -7.5
v -0.2 6.4 -7.5
v -0.2 6.5 -7.5
v -0.1 5 -7.5
v -0.1 5.2 -7.5
v 0.1 4.3 -7.5
v 0.1 4.4 -7.5
v 0.1 6.2 -7.5
v 0.1 6.4 -7.5
v 0.2 4.4 -7.5
v 0.2 4.5 -7.5
v 0.2 5.2 -7.5
v 0.2 5.3 -7.5
v 0.3 4.1 -7.5
v 0.3 4.2 -7.5
v 0.3 4.5 -7.5
v 0.3 4.6 -7.5
v 0.3 4.9 -7.5
v 0.3 5.3 -7.5
v 0.3 6.4 -7.5
v 0.4 4.2 -7.5
v 0.4 4.5 -7.5
v 0.4 6.5 -7.5
v -0.5 4.5 -8
v -0.5 4.6 -8
v -0.5 4.9 -8
v -0.5 6.1 -8
v -0.5 6.3 -8
v -0.5 6.5 -8
v -0.4 4.1 -8
v -0.4 4.3 -8
v -0.4 4.5 -8
v -0.4 6.3 -8
v -0.4 6.4 -8
v -0.3 4.1 -8
v -0.3 4.3 -8
v -0.3 4.9 -8
v -0.3 5 -8
v -0.2 6.1 -8
v -0.2 6.2 -8
v -0.2 6.4 -8
v -0.2 6.5 -8
v -0.1 5 -8
v -0.1 5.2 -8
v 0.1 4.3 -8
v 0.1 4.4 -8
v 0.1 6.2 -8
v 0.1 6.4 -8
v 0.2 4.4 -8
v 0.2 4.5 -8
v 0.2 5.2 -8
v 0.2 5.3 -8
v 0.3 4.1 -8
v 0.3 4.2 -8
v 0.3 4.5 -8
v 0.3 4.6 -8
v 0.3 4.9 -8
v 0.3 5.3 -8
v 0.3 6.4 -8
v 0.4 4.2 -8
v 0.4 4.5 -8
v 0.4 6.5 -8
v -0.4 4.1 -7.5
v -0.3 4.1 -7.5
v 0.3 4.1 -7.5
v -0.4 4.1 -8
v -0.3 4.1 -8
v 0.3 4.1 -8
v 0.3 4.2 -7.5
v 0.4 4.2 -7.5
v 0.3 4.2 -8
v 0.4 4.2 -8
v -0.5 4.5 -7.5
v -0.4 4.5 -7.5
v -0.5 4.5 -8
v -0.4 4.5 -8
v -0.5 6.5 -7.5
v -0.2 6.5 -7.5
v 0.4 6.5 -7.5
v 0.3 6.5 -7.6
v 0.4 6.5 -7.6
v 0.3 6.5 -7.9
v 0.4 6.5 -7.9
v -0.5 6.5 -8
v -0.2 6.5 -8
v 0.4 6.5 -8

# faces
f 3/4/1 2/4/1 1/4/1
f 4/4/1 2/4/1 3/4/1
f 5/1/1 4/1/1 3/1/1
f 6/1/1 4/1/1 5/1/1
f 7/4/1 6/4/1 5/4/1
f 8/4/1 6/4/1 7/4/1
f 9/1/1 8/1/1 7/1/1
f 10/1/1 8/1/1 9/1/1
f 11/5/1 10/5/1 9/5/1
f 12/5/1 10/5/1 11/5/1
f 15/6/1 14/6/1 13/6/1
f 16/6/1 14/6/1 15/6/1
f 17/4/1 16/4/1 15/4/1
f 18/4/1 16/4/1 17/4/1
f 19/2/2 20/2/2 21/2/2
f 21/2/2 20/2/2 22/2/2
f 23/2/2 24/2/2 25/2/2
f 25/2/2 24/2/2 26/2/2
f 26/2/2 24/2/2 27/2/2
f 27/2/2 24/2/2 28/2/2
f 25/1/2 26/1/2 29/1/2
f 26/4/2 27/4/2 29/4/2
f 27/1/2 28/1/2 30/1/2
f 29/4/2 27/4/2 30/4/2
f 25/1/2 29/1/2 31/1/2
f 29/1/2 30/1/2 31/1/2
f 30/1/2 28/1/2 32/1/2
f 31/1/2 30/1/2 32/1/2
f 25/1/2 31/1/2 33/1/2
f 31/4/2 32/4/2 34/4/2
f 33/1/2 31/1/2 34/1/2
f 32/1/2 28/1/2 35/1/2
f 34/4/2 32/4/2 35/4/2
f 35/1/2 28/1/2 36/1/2
f 45/4/3 38/4/3 37/4/3
f 46/1/3 41/1/3 40/1/3
f 46/5/3 42/5/3 41/5/3
f 47/5/3 42/5/3 46/5/3
f 48/6/3 44/6/3 43/6/3
f 49/4/3 45/4/3 44/4/3
f 49/6/3 44/6/3 48/6/3
f 50/1/3 39/1/3 38/1/3
f 50/4/3 40/4/3 39/4/3
f 51/4/3 40/4/3 50/4/3
f 52/1/3 46/1/3 40/1/3
f 52/4/3 40/4/3 51/4/3
f 52/1/3 47/1/3 46/1/3
f 53/1/3 47/1/3 52/1/3
f 54/5/3 42/5/3 47/5/3
f 54/1/3 47/1/3 53/1/3
f 55/5/3 42/5/3 54/5/3
f 56/4/3 53/4/3 52/4/3
f 56/5/3 51/5/3 50/5/3
f 56/4/3 52/4/3 51/4/3
f 57/4/3 53/4/3 56/4/3
f 58/4/3 45/4/3 49/4/3
f 58/2/3 49/2/3 48/2/3
f 59/4/3 45/4/3 58/4/3
f 60/4/3 53/4/3 57/4/3
f 60/1/3 55/1/3 54/1/3
f 60/1/3 54/1/3 53/1/3
f 61/1/3 55/1/3 60/1/3
f 62/4/3 45/4/3 59/4/3
f 62/2/3 59/2/3 58/2/3
f 63/4/3 38/4/3 45/4/3
f 63/4/3 45/4/3 62/4/3
f 64/5/3 57/5/3 56/5/3
f 64/4/3 61/4/3 60/4/3
f 64/4/3 60/4/3 57/4/3
f 65/4/3 61/4/3 64/4/3
f 66/2/3 62/2/3 58/2/3
f 66/2/3 63/2/3 62/2/3
f 66/2/3 58/2/3 48/2/3
f 67/2/3 63/2/3 66/2/3
f 68/4/3 38/4/3 63/4/3
f 68/2/3 63/2/3 67/2/3
f 69/1/3 50/1/3 38/1/3
f 69/4/3 38/4/3 68/4/3
f 70/5/3 65/5/3 64/5/3
f 70/1/3 50/1/3 69/1/3
f 70/5/3 64/5/3 56/5/3
f 70/5/3 56/5/3 50/5/3
f 71/4/3 61/4/3 65/4/3
f 71/5/3 65/5/3 70/5/3
f 72/1/3 55/1/3 61/1/3
f 72/4/3 61/4/3 71/4/3
f 73/2/3 68/2/3 67/2/3
f 74/1/3 71/1/3 70/1/3
f 74/2/3 68/2/3 73/2/3
f 74/1/3 70/1/3 69/1/3
f 74/1/3 69/1/3 68/1/3
f 74/1/3 72/1/3 71/1/3
f 75/1/3 55/1/3 72/1/3
f 75/1/3 72/1/3 74/1/3
f 76/4/4 77/4/4 84/4/4
f 79/1/4 80/1/4 85/1/4
f 80/5/4 81/5/4 85/5/4
f 85/5/4 81/5/4 86/5/4
f 82/6/4 83/6/4 87/6/4
f 83/4/4 84/4/4 88/4/4
f 87/6/4 83/6/4 88/6/4
f 77/1/4 78/1/4 89/1/4
f 78/4/4 79/4/4 89/4/4
f 89/4/4 79/4/4 90/4/4
f 79/1/4 85/1/4 91/1/4
f 90/4/4 79/4/4 91/4/4
f 85/1/4 86/1/4 91/1/4
f 91/1/4 86/1/4 92/1/4
f 86/5/4 81/5/4 93/5/4
f 92/1/4 86/1/4 93/1/4
f 93/5/4 81/5/4 94/5/4
f 91/4/4 92/4/4 95/4/4
f 89/5/4 90/5/4 95/5/4
f 90/4/4 91/4/4 95/4/4
f 95/4/4 92/4/4 96/4/4
f 88/4/4 84/4/4 97/4/4
f 87/2/4 88/2/4 97/2/4
f 97/4/4 84/4/4 98/4/4
f 96/4/4 92/4/4 99/4/4
f 93/1/4 94/1/4 99/1/4
f 92/1/4 93/1/4 99/1/4
f 99/1/4 94/1/4 100/1/4
f 98/4/4 84/4/4 101/4/4
f 97/2/4 98/2/4 101/2/4
f 84/4/4 77/4/4 102/4/4
f 101/4/4 84/4/4 102/4/4
f 95/5/4 96/5/4 103/5/4
f 99/4/4 100/4/4 103/4/4
f 96/4/4 99/4/4 103/4/4
f 103/4/4 100/4/4 104/4/4
f 97/2/4 101/2/4 105/2/4
f 101/2/4 102/2/4 105/2/4
f 87/2/4 97/2/4 105/2/4
f 105/2/4 102/2/4 106/2/4
f 102/4/4 77/4/4 107/4/4
f 106/2/4 102/2/4 107/2/4
f 77/1/4 89/1/4 108/1/4
f 107/4/4 77/4/4 108/4/4
f 103/5/4 104/5/4 109/5/4
f 108/1/4 89/1/4 109/1/4
f 95/5/4 103/5/4 109/5/4
f 89/5/4 95/5/4 109/5/4
f 104/4/4 100/4/4 110/4/4
f 109/5/4 104/5/4 110/5/4
f 100/1/4 94/1/4 111/1/4
f 110/4/4 100/4/4 111/4/4
f 106/2/4 107/2/4 112/2/4
f 109/1/4 110/1/4 113/1/4
f 112/2/4 107/2/4 113/2/4
f 108/1/4 109/1/4 113/1/4
f 107/1/4 108/1/4 113/1/4
f 110/1/4 111/1/4 113/1/4
f 111/1/4 94/1/4 114/1/4
f 113/1/4 111/1/4 114/1/4
f 118/6/5 116/6/5 115/6/5
f 119/2/5 117/2/5 116/2/5
f 119/6/5 116/6/5 118/6/5
f 120/2/5 117/2/5 119/2/5
f 123/2/5 122/2/5 121/2/5
f 124/2/5 122/2/5 123/2/5
f 127/4/5 126/4/5 125/4/5
f 128/4/5 126/4/5 127/4/5
f 130/1/6 131/1/6 132/1/6
f 132/1/6 131/1/6 133/1/6
f 130/1/6 132/1/6 134/1/6
f 132/4/6 133/4/6 134/4/6
f 134/4/6 133/4/6 135/4/6
f 129/5/6 130/5/6 136/5/6
f 130/1/6 134/1/6 137/1/6
f 136/5/6 130/5/6 137/5/6
f 134/1/6 135/1/6 137/1/6
f 137/1/6 135/1/6 138/1/6
